<?xml version="1.0" encoding="UTF-8"?><svg id="Layer_2" xmlns="http://www.w3.org/2000/svg" xmlns:xlink="http://www.w3.org/1999/xlink" viewBox="0 0 124.09 124.09"><defs><style>.cls-1{fill:none;}.cls-1,.cls-2{opacity:.8;}.cls-3{fill:url(#linear-gradient);}.cls-4,.cls-5,.cls-2,.cls-6{fill:#603d2b;}.cls-7{letter-spacing:-.04em;}.cls-8{fill:url(#linear-gradient-3);}.cls-9{fill:url(#linear-gradient-4);}.cls-10{fill:url(#linear-gradient-2);}.cls-5{font-size:15.71px;}.cls-5,.cls-2,.cls-6{font-family:Raleway-Black, Raleway;font-weight:800;}.cls-2{font-size:7.5px;}.cls-6{font-size:16.5px;}.cls-11{letter-spacing:-.03em;}</style><linearGradient id="linear-gradient" x1="17.48" y1="17.48" x2="105.74" y2="105.74" gradientTransform="translate(107.7 -12.89) rotate(76.35)" gradientUnits="userSpaceOnUse"><stop offset=".02" stop-color="#dda820"/><stop offset=".03" stop-color="#e2b130"/><stop offset=".09" stop-color="#f2ca5b"/><stop offset=".14" stop-color="#fbda76"/><stop offset=".16" stop-color="#ffe081"/><stop offset=".18" stop-color="#f8d779"/><stop offset=".47" stop-color="#a56613"/><stop offset=".5" stop-color="#c4923d"/><stop offset=".54" stop-color="#e4be68"/><stop offset=".57" stop-color="#f7d983"/><stop offset=".58" stop-color="#ffe48d"/><stop offset=".66" stop-color="#fee07e"/><stop offset=".8" stop-color="#fcd559"/><stop offset=".92" stop-color="#facc35"/><stop offset=".93" stop-color="#f3c332"/><stop offset=".96" stop-color="#e0ad2c"/><stop offset=".98" stop-color="#c18922"/><stop offset="1" stop-color="#ab6f1b"/></linearGradient><linearGradient id="linear-gradient-2" x1="62.05" y1="17.36" x2="62.05" y2="109.46" gradientTransform="translate(111.12 -10.7) rotate(79)" gradientUnits="userSpaceOnUse"><stop offset="0" stop-color="#ab6f1b"/><stop offset=".04" stop-color="#c18922"/><stop offset=".1" stop-color="#e0ad2c"/><stop offset=".14" stop-color="#f3c332"/><stop offset=".17" stop-color="#facc35"/><stop offset=".26" stop-color="#fcd559"/><stop offset=".36" stop-color="#fee07e"/><stop offset=".42" stop-color="#ffe48d"/><stop offset=".43" stop-color="#f7d983"/><stop offset=".46" stop-color="#e4be68"/><stop offset=".5" stop-color="#c4923d"/><stop offset=".53" stop-color="#a56613"/><stop offset=".73" stop-color="#f8d779"/><stop offset=".74" stop-color="#ffe081"/><stop offset=".77" stop-color="#fcd976"/><stop offset=".82" stop-color="#f3c75b"/><stop offset=".88" stop-color="#e6aa30"/><stop offset=".9" stop-color="#e2a020"/></linearGradient><linearGradient id="linear-gradient-3" x1="30.9" y1="26.52" x2="93.09" y2="97.45" gradientTransform="translate(113.18 -9.26) rotate(80.65)" gradientUnits="userSpaceOnUse"><stop offset="0" stop-color="#101920"/><stop offset=".51" stop-color="#2c2c2c"/><stop offset="1" stop-color="#191620"/></linearGradient><linearGradient id="linear-gradient-4" x1="17.15" y1="62.05" x2="106.22" y2="62.05" gradientUnits="userSpaceOnUse"><stop offset="0" stop-color="#fdf7c2"/><stop offset=".08" stop-color="#fbe78d"/><stop offset=".19" stop-color="#fad34e"/><stop offset=".24" stop-color="#facc35"/><stop offset=".55" stop-color="#fde79a"/><stop offset=".79" stop-color="#e1c575"/><stop offset=".83" stop-color="#e3c56e"/><stop offset=".9" stop-color="#eac75c"/><stop offset=".98" stop-color="#f6cb3d"/><stop offset="1" stop-color="#facc35"/></linearGradient></defs><g id="OBJECTS"><circle class="cls-3" cx="62.05" cy="62.05" r="62.05" transform="translate(-12.89 107.7) rotate(-76.35)"/><circle class="cls-10" cx="62.05" cy="62.05" r="47.87" transform="translate(-10.7 111.12) rotate(-79)"/><circle class="cls-8" cx="62.05" cy="62.05" r="46.33" transform="translate(-9.26 113.18) rotate(-80.65)"/><circle class="cls-9" cx="62.05" cy="62.05" r="44.75"/><text class="cls-2" transform="translate(35.08 16.73) rotate(-28.29)"><tspan x="0" y="0">S</tspan></text><text class="cls-2" transform="translate(39.31 14.45) rotate(-22.84)"><tspan x="0" y="0">A</tspan></text><text class="cls-2" transform="translate(43.79 12.57) rotate(-17.7)"><tspan x="0" y="0">T</tspan></text><text class="cls-2" transform="translate(48.59 11.09) rotate(-13.45)"><tspan x="0" y="0">I</tspan></text><text class="cls-2" transform="translate(51.27 10.42) rotate(-9.21)"><tspan x="0" y="0">S</tspan></text><text class="cls-2" transform="translate(56.16 9.65) rotate(-4.06)"><tspan x="0" y="0">F</tspan></text><text class="cls-2" transform="translate(60.35 9.34) rotate(.93)"><tspan x="0" y="0">A</tspan></text><text class="cls-2" transform="translate(65.46 9.42) rotate(6.45)"><tspan x="0" y="0">C</tspan></text><text class="cls-2" transform="translate(70.9 10.06) rotate(12.15)"><tspan x="0" y="0">T</tspan></text><text class="cls-2" transform="translate(75.81 11.17) rotate(16.41)"><tspan x="0" y="0">I</tspan></text><text class="cls-2" transform="translate(78.44 11.89) rotate(21.23)"><tspan x="0" y="0">O</tspan></text><text class="cls-2" transform="translate(84.04 14.08) rotate(27.75)"><tspan x="0" y="0">N</tspan></text><text class="cls-2" transform="translate(34.17 113) rotate(25.99)"><tspan x="0" y="0">G</tspan></text><text class="cls-2" transform="translate(39.94 115.76) rotate(19.63)"><tspan x="0" y="0">U</tspan></text><text class="cls-2" transform="translate(45.8 117.8) rotate(13.74)"><tspan x="0" y="0">A</tspan></text><text class="cls-2" transform="translate(51.48 119.14) rotate(7.92)"><tspan x="0" y="0">R</tspan></text><text class="cls-2" transform="translate(57.33 119.91) rotate(2.15)"><tspan x="0" y="0">A</tspan></text><text class="cls-2" transform="translate(63.18 120.11) rotate(-3.85)"><tspan x="0" y="0">N</tspan></text><text class="cls-2" transform="translate(69.65 119.6) rotate(-9.77)"><tspan x="0" y="0">T</tspan></text><text class="cls-2" transform="translate(75.05 118.63) rotate(-15.12)"><tspan x="0" y="0">E</tspan></text><text class="cls-2" transform="translate(80.14 117.22) rotate(-20.38)"><tspan x="0" y="0">E</tspan></text><text class="cls-2" transform="translate(85.12 115.34) rotate(-26.1)"><tspan x="0" y="0">D</tspan></text><g class="cls-1"><path class="cls-4" d="m17.31,100.69c.46.45.98.8,1.52,1.03.56.21,1.14.31,1.71.29,1.13-.03,2.19-.53,2.95-1.44-.87-.79-2.01-1.12-3.12-1.12-1.1,0-2.22.4-3.07,1.24Z"/><path class="cls-4" d="m23.49,100.57c.76-.91,1.11-2.04,1.08-3.11-.01-.53-.12-1.05-.32-1.52-.19-.49-.47-.94-.85-1.32-.84.84-1.28,1.91-1.28,3,0,1.09.5,2.14,1.38,2.94Z"/><path class="cls-4" d="m14.17,97.26c.4.51.9.88,1.44,1.14.53.26,1.1.42,1.66.45,1.13.07,2.25-.36,3.09-1.2-.42-.41-.91-.73-1.4-.97-.51-.23-1.05-.37-1.61-.4-1.13-.06-2.25.21-3.17.97Z"/><path class="cls-4" d="m20.35,97.66c.84-.84,1.25-1.92,1.33-2.98.04-.54-.02-1.07-.17-1.56-.16-.49-.41-.95-.75-1.37-.9.75-1.47,1.81-1.53,2.88-.04.54.03,1.08.22,1.61.18.53.49,1.02.91,1.43Z"/><path class="cls-4" d="m11.34,93.57c.77,1.03,1.81,1.71,2.96,1.85,1.13.16,2.26-.16,3.17-.92-.37-.46-.82-.82-1.32-1.08-.5-.27-1.01-.46-1.56-.55-1.09-.18-2.27.03-3.25.7Z"/><path class="cls-4" d="m17.47,94.5c.91-.76,1.44-1.82,1.59-2.86.13-1.03-.02-2.13-.67-2.99-.97.68-1.59,1.65-1.77,2.73-.09.53-.08,1.1.07,1.63.15.53.41,1.04.79,1.5Z"/><path class="cls-4" d="m8.85,89.64c.33.55.72,1.03,1.21,1.38.49.35,1.02.59,1.57.72,1.09.26,2.25.05,3.23-.64-.67-.97-1.64-1.61-2.73-1.87-1.06-.28-2.25-.19-3.28.41Z"/><path class="cls-4" d="m14.86,91.11c.96-.68,1.58-1.68,1.84-2.72.13-.52.16-1.05.08-1.56-.08-.51-.21-1.02-.49-1.49-1.03.59-1.74,1.51-2.02,2.58-.26,1.04-.08,2.21.59,3.19Z"/><path class="cls-4" d="m6.69,85.52c.54,1.17,1.53,1.98,2.58,2.34,1.1.34,2.27.23,3.3-.37-.61-1.01-1.5-1.74-2.56-2.1-.53-.18-1.09-.27-1.66-.25-.56.01-1.12.13-1.66.38Z"/><path class="cls-4" d="m12.57,87.49c1.03-.59,1.72-1.54,2.04-2.54.36-1.03.33-2.1-.13-3.07-.54.25-1.01.59-1.39,1-.37.4-.65.87-.83,1.38-.35,1.02-.31,2.21.31,3.23Z"/><path class="cls-4" d="m4.92,81.21c.23.6.56,1.13.96,1.57.39.44.91.76,1.42.99,1.05.44,2.22.44,3.29-.07-.47-1.08-1.38-1.85-2.36-2.32-1-.46-2.19-.57-3.31-.17Z"/><path class="cls-4" d="m10.59,83.7c1.07-.5,1.86-1.39,2.28-2.36.22-.49.31-.99.35-1.52.04-.52-.03-1.04-.22-1.55-1.12.4-1.97,1.19-2.42,2.18-.48,1-.45,2.16.02,3.24Z"/><path class="cls-4" d="m3.53,76.77c.08.31.19.61.32.88.14.27.31.53.5.76.37.47.82.84,1.32,1.11.97.54,2.19.62,3.29.22-.22-.55-.5-1.05-.86-1.47-.36-.42-.8-.78-1.3-1.05-.98-.54-2.12-.76-3.27-.46Z"/><path class="cls-4" d="m8.96,79.75c1.12-.41,1.93-1.2,2.47-2.15.26-.47.43-.97.5-1.48.03-.26.04-.51.02-.77,0-.26-.04-.53-.11-.79-1.14.3-2.09,1.02-2.61,1.96-.26.47-.42,1-.47,1.55-.05.55,0,1.13.22,1.68Z"/><path class="cls-4" d="m7.68,75.66c1.15-.31,2.07-1.04,2.64-1.92.28-.44.5-.93.63-1.43.12-.51.14-1.03.03-1.56-1.17.2-2.14.82-2.75,1.72-.3.45-.53.96-.63,1.51-.09.54-.06,1.12.09,1.69Z"/><path class="cls-4" d="m6.75,71.49c1.16-.2,2.14-.85,2.82-1.69.67-.84.99-1.85.92-2.93-1.18.1-2.21.64-2.92,1.48-.67.83-1.01,1.97-.82,3.13Z"/><path class="cls-4" d="m6.21,67.24c1.18-.1,2.21-.66,2.93-1.43.73-.78,1.21-1.76,1.17-2.84-1.19,0-2.25.44-3,1.22-.38.39-.68.85-.88,1.37-.2.52-.25,1.09-.21,1.68Z"/><path class="cls-4" d="m6.01,62.97c1.19,0,2.27-.47,3.07-1.18.4-.35.73-.77.95-1.23.24-.46.42-.96.46-1.5-1.18-.1-2.29.25-3.13.96-.82.7-1.31,1.77-1.35,2.95Z"/><path class="cls-4" d="m6.21,58.69c1.18.1,2.29-.28,3.12-.91.88-.63,1.48-1.53,1.65-2.59-1.18-.21-2.3.05-3.18.68-.87.63-1.52,1.64-1.6,2.82Z"/><path class="cls-4" d="m6.75,54.45c1.17.2,2.32-.07,3.22-.63.45-.28.84-.63,1.15-1.04.33-.41.57-.87.71-1.4-1.15-.31-2.29-.15-3.24.4-.48.27-.88.65-1.19,1.1-.31.45-.54.98-.66,1.56Z"/><path class="cls-4" d="m7.68,50.27c1.15.31,2.28.12,3.24-.35.48-.24.91-.55,1.26-.93.35-.38.61-.83.81-1.33-1.1-.4-2.31-.36-3.26.12-.48.24-.92.57-1.28,1-.18.21-.35.44-.48.69-.12.25-.23.53-.3.81Z"/><path class="cls-4" d="m6.69,40.42c-.51,1.18-.58,2.43-.12,3.49.43,1.06,1.27,1.88,2.38,2.28.21-.55.3-1.12.28-1.68-.03-.57-.1-1.11-.31-1.63-.39-1.03-1.16-1.96-2.23-2.46Z"/><path class="cls-4" d="m8.96,46.19c1.12.4,2.29.33,3.27-.06.96-.41,1.83-1.09,2.25-2.08-1.07-.5-2.23-.55-3.25-.17-.5.19-1,.48-1.37.88-.38.39-.69.88-.9,1.43Z"/><path class="cls-4" d="m8.85,36.3c-.67,1.1-.75,2.38-.43,3.46.16.54.43,1.03.79,1.45.37.43.84.77,1.37,1.02.5-1.07.58-2.22.25-3.31-.29-1.06-.96-2.04-1.99-2.63Z"/><path class="cls-4" d="m10.59,42.24c.54.25,1.1.38,1.65.41.56.03,1.11-.03,1.62-.18,1.03-.3,1.87-.95,2.43-1.87-1.03-.59-2.18-.74-3.24-.46-1.02.3-1.96,1.03-2.46,2.11Z"/><path class="cls-4" d="m11.34,32.37c-.73,1.06-.95,2.31-.73,3.41.25,1.12.94,2.08,1.96,2.67.3-.51.46-1.07.56-1.61.1-.55.09-1.11-.02-1.66-.22-1.1-.81-2.13-1.77-2.81Z"/><path class="cls-4" d="m12.57,38.44c1.03.59,2.19.72,3.22.5,1.06-.21,1.98-.76,2.59-1.65-.98-.69-2.11-.93-3.17-.73-.53.1-1.04.31-1.51.62-.47.31-.83.75-1.13,1.26Z"/><path class="cls-4" d="m14.17,28.68c-.41.5-.7,1.05-.88,1.61-.18.56-.2,1.16-.14,1.72.14,1.13.73,2.14,1.7,2.82.71-.94.91-2.12.83-3.2-.11-1.1-.61-2.18-1.52-2.95Z"/><path class="cls-4" d="m14.86,34.83c.97.68,2.13.92,3.18.79.53-.06,1.02-.23,1.49-.46.47-.23.89-.55,1.23-.97-.91-.76-2.01-1.11-3.1-1-1.1.08-2.09.69-2.8,1.64Z"/><path class="cls-4" d="m17.31,25.25c-.46.45-.81.97-1.01,1.53-.21.56-.31,1.14-.3,1.7.02,1.12.56,2.21,1.46,2.96.36-.47.65-.96.84-1.48.18-.53.27-1.09.25-1.65-.02-1.11-.41-2.22-1.25-3.06Z"/><path class="cls-4" d="m17.47,31.44c.92.77,2.01,1.07,3.09,1.06.54-.01,1.06-.12,1.53-.32.47-.21.92-.49,1.3-.86-.83-.83-1.93-1.29-3.01-1.27-.54.01-1.07.14-1.58.37-.51.23-.98.57-1.34,1.03Z"/><path class="cls-4" d="m20.72,22.09c-.96.86-1.53,1.97-1.57,3.11-.05,1.14.36,2.24,1.21,3.08.42-.42.74-.9.95-1.42.24-.5.37-1.04.41-1.6.08-1.11-.23-2.27-1-3.18Z"/><path class="cls-4" d="m20.35,28.28c.84.84,1.94,1.26,2.99,1.32,1.05.05,2.12-.22,2.92-.94-.76-.91-1.79-1.43-2.87-1.51-.54-.04-1.09.03-1.62.21-.51.2-1,.51-1.42.93Z"/><path class="cls-4" d="m106.78,100.69c-.46.45-.98.8-1.52,1.03-.56.21-1.14.31-1.71.29-1.13-.03-2.19-.53-2.95-1.44.87-.79,2.01-1.12,3.11-1.12,1.1,0,2.22.4,3.07,1.24Z"/><path class="cls-4" d="m100.6,100.57c-.76-.91-1.11-2.04-1.08-3.11.01-.53.12-1.05.32-1.52.19-.49.47-.94.85-1.32.84.84,1.28,1.91,1.28,3,0,1.09-.5,2.14-1.38,2.94Z"/><path class="cls-4" d="m109.92,97.26c-.4.51-.9.88-1.44,1.14-.53.26-1.1.42-1.66.45-1.13.07-2.25-.36-3.09-1.2.42-.41.91-.73,1.4-.97.51-.23,1.05-.37,1.61-.4,1.13-.06,2.25.21,3.17.97Z"/><path class="cls-4" d="m103.74,97.66c-.84-.84-1.25-1.92-1.33-2.98-.04-.54.02-1.07.17-1.56.16-.49.41-.95.75-1.37.9.75,1.47,1.81,1.53,2.88.04.54-.03,1.08-.22,1.61-.18.53-.49,1.02-.91,1.43Z"/><path class="cls-4" d="m112.75,93.57c-.77,1.03-1.81,1.71-2.96,1.85-1.13.16-2.26-.16-3.17-.92.37-.46.82-.82,1.32-1.08.5-.27,1.01-.46,1.56-.55,1.09-.18,2.27.03,3.25.7Z"/><path class="cls-4" d="m106.63,94.5c-.91-.76-1.44-1.82-1.59-2.86-.13-1.03.02-2.13.67-2.99.97.68,1.59,1.65,1.77,2.73.09.53.08,1.1-.07,1.63-.15.53-.41,1.04-.79,1.5Z"/><path class="cls-4" d="m115.24,89.64c-.33.55-.72,1.03-1.21,1.38-.49.35-1.02.59-1.57.72-1.09.26-2.25.05-3.23-.64.67-.97,1.64-1.61,2.73-1.87,1.06-.28,2.25-.19,3.28.41Z"/><path class="cls-4" d="m109.23,91.11c-.97-.68-1.58-1.68-1.84-2.72-.13-.52-.16-1.05-.08-1.56.08-.51.21-1.02.49-1.49,1.03.59,1.74,1.51,2.02,2.58.26,1.04.08,2.21-.59,3.19Z"/><path class="cls-4" d="m117.4,85.52c-.54,1.17-1.53,1.98-2.58,2.34-1.1.34-2.27.23-3.3-.37.61-1.01,1.5-1.74,2.56-2.1.53-.18,1.09-.27,1.66-.25.56.01,1.12.13,1.66.38Z"/><path class="cls-4" d="m111.52,87.49c-1.03-.59-1.72-1.54-2.04-2.54-.36-1.03-.33-2.1.13-3.07.54.25,1.01.59,1.39,1,.37.4.65.87.83,1.38.35,1.02.31,2.21-.31,3.23Z"/><path class="cls-4" d="m119.17,81.21c-.23.6-.56,1.13-.96,1.57-.39.44-.91.76-1.42.99-1.05.44-2.22.44-3.29-.07.47-1.08,1.38-1.85,2.36-2.32,1-.46,2.19-.57,3.31-.17Z"/><path class="cls-4" d="m113.5,83.7c-1.07-.5-1.86-1.39-2.28-2.36-.22-.49-.31-.99-.35-1.52-.04-.52.03-1.04.22-1.55,1.12.4,1.97,1.19,2.42,2.18.48,1,.45,2.16-.02,3.24Z"/><path class="cls-4" d="m120.57,76.77c-.08.31-.19.61-.32.88-.14.27-.31.53-.5.76-.37.47-.82.84-1.32,1.11-.97.54-2.19.62-3.3.22.22-.55.5-1.05.86-1.47.36-.42.8-.78,1.3-1.05.98-.54,2.12-.76,3.27-.46Z"/><path class="cls-4" d="m115.14,79.75c-1.12-.41-1.93-1.2-2.47-2.15-.26-.47-.43-.97-.5-1.48-.03-.26-.04-.51-.02-.77,0-.26.04-.53.11-.79,1.14.3,2.09,1.02,2.61,1.96.26.47.42,1,.47,1.55.05.55,0,1.13-.22,1.68Z"/><path class="cls-4" d="m121.58,72.23c-.12.63-.36,1.21-.68,1.71-.32.5-.72.92-1.21,1.22-.96.62-2.12.81-3.27.51.15-.57.4-1.09.74-1.54.32-.45.71-.85,1.18-1.16.92-.62,2.07-.94,3.24-.74Z"/><path class="cls-4" d="m116.41,75.66c-1.15-.31-2.07-1.04-2.64-1.92-.28-.44-.5-.93-.63-1.43-.12-.51-.14-1.03-.03-1.56,1.17.2,2.14.82,2.75,1.72.3.45.53.96.63,1.51.09.54.06,1.12-.09,1.69Z"/><path class="cls-4" d="m122.16,67.61c-.08,1.28-.74,2.38-1.63,3.08-.88.7-2.02,1-3.19.79.19-1.16.8-2.15,1.68-2.86.84-.7,1.95-1.12,3.14-1.02Z"/><path class="cls-4" d="m117.35,71.49c-1.16-.2-2.14-.85-2.82-1.69-.67-.84-.99-1.85-.92-2.93,1.18.1,2.21.64,2.92,1.48.67.83,1.01,1.97.82,3.13Z"/><path class="cls-4" d="m122.38,62.97c-.04,1.28-.54,2.44-1.36,3.21-.84.77-1.96,1.17-3.14,1.07.04-.59.23-1.14.47-1.64.23-.5.56-.96.96-1.35.8-.77,1.89-1.28,3.07-1.28Z"/><path class="cls-4" d="m117.88,67.24c-1.18-.1-2.21-.66-2.93-1.43-.73-.78-1.21-1.76-1.17-2.84,1.19,0,2.25.44,3,1.22.38.39.68.85.88,1.37.2.52.25,1.09.21,1.68Z"/><path class="cls-4" d="m122.16,58.33c.05.64,0,1.26-.2,1.82-.2.56-.5,1.07-.88,1.49-.75.84-1.82,1.33-3,1.33-.04-1.18.43-2.26,1.16-3.1.71-.84,1.74-1.44,2.92-1.54Z"/><path class="cls-4" d="m118.09,62.97c-1.19,0-2.27-.47-3.07-1.18-.4-.35-.73-.77-.95-1.23-.24-.46-.42-.96-.46-1.5,1.18-.1,2.29.25,3.13.96.82.7,1.31,1.77,1.35,2.95Z"/><path class="cls-4" d="m121.58,53.71c.21,1.27-.12,2.5-.78,3.4-.7.91-1.73,1.49-2.91,1.59-.07-1.18.24-2.29.89-3.19.66-.9,1.64-1.59,2.8-1.79Z"/><path class="cls-4" d="m117.88,58.69c-1.18.1-2.29-.28-3.12-.91-.88-.63-1.48-1.53-1.65-2.59,1.18-.21,2.3.05,3.18.68.87.63,1.52,1.64,1.6,2.82Z"/><path class="cls-4" d="m120.57,49.17c.16.62.2,1.25.12,1.83-.09.59-.31,1.14-.61,1.62-.6.96-1.56,1.63-2.73,1.83-.12-.58-.11-1.15,0-1.7.12-.55.33-1.08.6-1.55.56-.95,1.47-1.72,2.61-2.03Z"/><path class="cls-4" d="m117.35,54.45c-1.17.2-2.32-.07-3.22-.63-.45-.28-.84-.63-1.15-1.04-.33-.41-.57-.87-.71-1.4,1.15-.31,2.29-.15,3.24.4.48.27.88.65,1.19,1.1.31.45.54.98.66,1.56Z"/><path class="cls-4" d="m119.17,44.73c.24.6.31,1.22.27,1.82-.04.6-.19,1.16-.44,1.66-.5,1.01-1.45,1.77-2.58,2.07-.07-.29-.12-.57-.13-.86-.02-.28-.03-.56,0-.84.05-.55.21-1.1.46-1.6.51-1.01,1.31-1.84,2.43-2.25Z"/><path class="cls-4" d="m116.41,50.27c-1.15.31-2.28.12-3.24-.35-.48-.24-.91-.55-1.26-.93-.35-.38-.61-.83-.81-1.33,1.1-.4,2.31-.36,3.26.12.48.24.92.57,1.28,1,.18.21.35.44.48.69.12.25.23.53.3.81Z"/><path class="cls-4" d="m117.4,40.42c.51,1.18.58,2.43.12,3.49-.43,1.06-1.27,1.88-2.38,2.28-.21-.55-.3-1.12-.28-1.68.03-.57.1-1.11.31-1.63.39-1.03,1.16-1.96,2.23-2.46Z"/><path class="cls-4" d="m115.13,46.19c-1.12.4-2.29.33-3.27-.06-.96-.41-1.83-1.09-2.25-2.08,1.07-.5,2.23-.55,3.25-.17.5.19,1,.48,1.37.88.38.39.69.88.9,1.43Z"/><path class="cls-4" d="m115.24,36.3c.67,1.1.75,2.38.43,3.46-.16.54-.43,1.03-.79,1.45-.37.43-.84.77-1.37,1.02-.5-1.07-.58-2.22-.25-3.31.29-1.06.96-2.04,1.99-2.63Z"/><path class="cls-4" d="m113.5,42.24c-.54.25-1.1.38-1.65.41-.56.03-1.11-.03-1.62-.18-1.03-.3-1.87-.95-2.43-1.87,1.03-.59,2.18-.74,3.24-.46,1.02.3,1.96,1.03,2.46,2.11Z"/><path class="cls-4" d="m112.75,32.37c.73,1.06.95,2.31.73,3.41-.25,1.12-.94,2.08-1.96,2.67-.3-.51-.46-1.07-.56-1.61-.1-.55-.09-1.11.02-1.66.22-1.1.81-2.13,1.77-2.81Z"/><path class="cls-4" d="m111.52,38.44c-1.03.59-2.19.72-3.22.5-1.06-.21-1.98-.76-2.59-1.65.98-.69,2.11-.93,3.17-.73.53.1,1.04.31,1.51.62.47.31.83.75,1.13,1.26Z"/><path class="cls-4" d="m109.92,28.68c.41.5.7,1.05.88,1.61.18.56.2,1.16.14,1.72-.14,1.13-.73,2.14-1.7,2.82-.71-.94-.91-2.12-.83-3.2.11-1.1.61-2.18,1.52-2.95Z"/><path class="cls-4" d="m109.23,34.83c-.97.68-2.13.92-3.18.79-.53-.06-1.02-.23-1.49-.46-.47-.23-.89-.55-1.23-.97.91-.76,2.01-1.11,3.1-1,1.11.08,2.09.69,2.8,1.64Z"/><path class="cls-4" d="m106.78,25.25c.46.45.81.97,1.01,1.53.21.56.31,1.14.3,1.7-.02,1.12-.56,2.21-1.46,2.96-.36-.47-.65-.96-.84-1.48-.18-.53-.27-1.09-.25-1.65.02-1.11.41-2.22,1.25-3.06Z"/><path class="cls-4" d="m106.63,31.44c-.92.77-2.01,1.07-3.09,1.06-.54-.01-1.06-.12-1.53-.32-.47-.21-.92-.49-1.3-.86.83-.83,1.93-1.29,3.01-1.27.54.01,1.07.14,1.58.37.51.23.98.57,1.34,1.03Z"/><path class="cls-4" d="m103.37,22.09c.96.86,1.53,1.97,1.57,3.11.05,1.14-.36,2.24-1.21,3.08-.42-.42-.74-.9-.95-1.42-.24-.5-.37-1.04-.41-1.6-.08-1.11.23-2.27,1-3.18Z"/><path class="cls-4" d="m103.74,28.28c-.84.84-1.94,1.26-2.99,1.32-1.05.05-2.12-.22-2.92-.94.76-.91,1.79-1.43,2.87-1.51.54-.04,1.09.03,1.62.21.51.2,1,.51,1.42.93Z"/></g><g class="cls-1"><text class="cls-6" transform="translate(23.59 61.03)"><tspan x="0" y="0">PREMIUM</tspan></text><text class="cls-5" transform="translate(28.24 74.82)"><tspan x="0" y="0">Q</tspan><tspan class="cls-11" x="12.02" y="0">U</tspan><tspan x="23.27" y="0">ALIT</tspan><tspan class="cls-7" x="57.73" y="0">Y</tspan></text></g><g class="cls-1"><polygon class="cls-4" points="62.05 34.37 63.33 36.97 66.2 37.39 64.12 39.41 64.61 42.27 62.05 40.92 59.48 42.27 59.97 39.41 57.89 37.39 60.76 36.97 62.05 34.37"/><polygon class="cls-4" points="52.21 37.78 53.08 39.55 55.02 39.83 53.61 41.2 53.95 43.14 52.21 42.22 50.47 43.14 50.8 41.2 49.39 39.83 51.34 39.55 52.21 37.78"/><polygon class="cls-4" points="43.85 40.42 44.43 41.6 45.74 41.79 44.8 42.71 45.02 44.01 43.85 43.39 42.68 44.01 42.91 42.71 41.96 41.79 43.27 41.6 43.85 40.42"/><polygon class="cls-4" points="71.89 37.78 71.02 39.55 69.07 39.83 70.48 41.2 70.15 43.14 71.89 42.22 73.63 43.14 73.29 41.2 74.7 39.83 72.76 39.55 71.89 37.78"/><polygon class="cls-4" points="80.24 40.42 79.66 41.6 78.35 41.79 79.3 42.71 79.08 44.01 80.24 43.39 81.41 44.01 81.19 42.71 82.13 41.79 80.83 41.6 80.24 40.42"/><polygon class="cls-4" points="62.05 81.82 63.33 84.42 66.2 84.84 64.12 86.87 64.61 89.72 62.05 88.37 59.48 89.72 59.97 86.87 57.89 84.84 60.76 84.42 62.05 81.82"/><polygon class="cls-4" points="52.21 80.95 53.08 82.72 55.02 83 53.61 84.37 53.95 86.31 52.21 85.39 50.47 86.31 50.8 84.37 49.39 83 51.34 82.72 52.21 80.95"/><polygon class="cls-4" points="43.85 80.09 44.43 81.27 45.74 81.46 44.8 82.38 45.02 83.68 43.85 83.06 42.68 83.68 42.91 82.38 41.96 81.46 43.27 81.27 43.85 80.09"/><polygon class="cls-4" points="71.89 80.95 71.02 82.72 69.07 83 70.48 84.37 70.15 86.31 71.89 85.39 73.63 86.31 73.29 84.37 74.7 83 72.76 82.72 71.89 80.95"/><polygon class="cls-4" points="80.24 80.09 79.66 81.27 78.35 81.46 79.3 82.38 79.08 83.68 80.24 83.06 81.41 83.68 81.19 82.38 82.13 81.46 80.83 81.27 80.24 80.09"/></g></g></svg>